<?xml version="1.0"?><svg xmlns="http://www.w3.org/2000/svg" version="1.1" width="196" height="196" viewBox="0 0 196 196"><g><rect x="0" y="0" width="196" height="196" fill="white"/><g transform="translate(0 0) scale(4 4)"><rect x="4" y="4" width="1" height="1" fill="black"/><rect x="5" y="4" width="1" height="1" fill="black"/><rect x="6" y="4" width="1" height="1" fill="black"/><rect x="7" y="4" width="1" height="1" fill="black"/><rect x="8" y="4" width="1" height="1" fill="black"/><rect x="9" y="4" width="1" height="1" fill="black"/><rect x="10" y="4" width="1" height="1" fill="black"/><rect x="12" y="4" width="1" height="1" fill="black"/><rect x="13" y="4" width="1" height="1" fill="black"/><rect x="14" y="4" width="1" height="1" fill="black"/><rect x="16" y="4" width="1" height="1" fill="black"/><rect x="20" y="4" width="1" height="1" fill="black"/><rect x="23" y="4" width="1" height="1" fill="black"/><rect x="25" y="4" width="1" height="1" fill="black"/><rect x="27" y="4" width="1" height="1" fill="black"/><rect x="28" y="4" width="1" height="1" fill="black"/><rect x="33" y="4" width="1" height="1" fill="black"/><rect x="35" y="4" width="1" height="1" fill="black"/><rect x="38" y="4" width="1" height="1" fill="black"/><rect x="39" y="4" width="1" height="1" fill="black"/><rect x="40" y="4" width="1" height="1" fill="black"/><rect x="41" y="4" width="1" height="1" fill="black"/><rect x="42" y="4" width="1" height="1" fill="black"/><rect x="43" y="4" width="1" height="1" fill="black"/><rect x="44" y="4" width="1" height="1" fill="black"/><rect x="4" y="5" width="1" height="1" fill="black"/><rect x="10" y="5" width="1" height="1" fill="black"/><rect x="14" y="5" width="1" height="1" fill="black"/><rect x="18" y="5" width="1" height="1" fill="black"/><rect x="20" y="5" width="1" height="1" fill="black"/><rect x="21" y="5" width="1" height="1" fill="black"/><rect x="24" y="5" width="1" height="1" fill="black"/><rect x="26" y="5" width="1" height="1" fill="black"/><rect x="27" y="5" width="1" height="1" fill="black"/><rect x="30" y="5" width="1" height="1" fill="black"/><rect x="33" y="5" width="1" height="1" fill="black"/><rect x="38" y="5" width="1" height="1" fill="black"/><rect x="44" y="5" width="1" height="1" fill="black"/><rect x="4" y="6" width="1" height="1" fill="black"/><rect x="6" y="6" width="1" height="1" fill="black"/><rect x="7" y="6" width="1" height="1" fill="black"/><rect x="8" y="6" width="1" height="1" fill="black"/><rect x="10" y="6" width="1" height="1" fill="black"/><rect x="12" y="6" width="1" height="1" fill="black"/><rect x="13" y="6" width="1" height="1" fill="black"/><rect x="14" y="6" width="1" height="1" fill="black"/><rect x="17" y="6" width="1" height="1" fill="black"/><rect x="18" y="6" width="1" height="1" fill="black"/><rect x="19" y="6" width="1" height="1" fill="black"/><rect x="20" y="6" width="1" height="1" fill="black"/><rect x="22" y="6" width="1" height="1" fill="black"/><rect x="23" y="6" width="1" height="1" fill="black"/><rect x="26" y="6" width="1" height="1" fill="black"/><rect x="27" y="6" width="1" height="1" fill="black"/><rect x="28" y="6" width="1" height="1" fill="black"/><rect x="29" y="6" width="1" height="1" fill="black"/><rect x="31" y="6" width="1" height="1" fill="black"/><rect x="32" y="6" width="1" height="1" fill="black"/><rect x="34" y="6" width="1" height="1" fill="black"/><rect x="36" y="6" width="1" height="1" fill="black"/><rect x="38" y="6" width="1" height="1" fill="black"/><rect x="40" y="6" width="1" height="1" fill="black"/><rect x="41" y="6" width="1" height="1" fill="black"/><rect x="42" y="6" width="1" height="1" fill="black"/><rect x="44" y="6" width="1" height="1" fill="black"/><rect x="4" y="7" width="1" height="1" fill="black"/><rect x="6" y="7" width="1" height="1" fill="black"/><rect x="7" y="7" width="1" height="1" fill="black"/><rect x="8" y="7" width="1" height="1" fill="black"/><rect x="10" y="7" width="1" height="1" fill="black"/><rect x="12" y="7" width="1" height="1" fill="black"/><rect x="13" y="7" width="1" height="1" fill="black"/><rect x="15" y="7" width="1" height="1" fill="black"/><rect x="16" y="7" width="1" height="1" fill="black"/><rect x="19" y="7" width="1" height="1" fill="black"/><rect x="22" y="7" width="1" height="1" fill="black"/><rect x="25" y="7" width="1" height="1" fill="black"/><rect x="26" y="7" width="1" height="1" fill="black"/><rect x="27" y="7" width="1" height="1" fill="black"/><rect x="28" y="7" width="1" height="1" fill="black"/><rect x="29" y="7" width="1" height="1" fill="black"/><rect x="30" y="7" width="1" height="1" fill="black"/><rect x="32" y="7" width="1" height="1" fill="black"/><rect x="35" y="7" width="1" height="1" fill="black"/><rect x="38" y="7" width="1" height="1" fill="black"/><rect x="40" y="7" width="1" height="1" fill="black"/><rect x="41" y="7" width="1" height="1" fill="black"/><rect x="42" y="7" width="1" height="1" fill="black"/><rect x="44" y="7" width="1" height="1" fill="black"/><rect x="4" y="8" width="1" height="1" fill="black"/><rect x="6" y="8" width="1" height="1" fill="black"/><rect x="7" y="8" width="1" height="1" fill="black"/><rect x="8" y="8" width="1" height="1" fill="black"/><rect x="10" y="8" width="1" height="1" fill="black"/><rect x="12" y="8" width="1" height="1" fill="black"/><rect x="17" y="8" width="1" height="1" fill="black"/><rect x="20" y="8" width="1" height="1" fill="black"/><rect x="21" y="8" width="1" height="1" fill="black"/><rect x="22" y="8" width="1" height="1" fill="black"/><rect x="27" y="8" width="1" height="1" fill="black"/><rect x="28" y="8" width="1" height="1" fill="black"/><rect x="30" y="8" width="1" height="1" fill="black"/><rect x="32" y="8" width="1" height="1" fill="black"/><rect x="38" y="8" width="1" height="1" fill="black"/><rect x="40" y="8" width="1" height="1" fill="black"/><rect x="41" y="8" width="1" height="1" fill="black"/><rect x="42" y="8" width="1" height="1" fill="black"/><rect x="44" y="8" width="1" height="1" fill="black"/><rect x="4" y="9" width="1" height="1" fill="black"/><rect x="10" y="9" width="1" height="1" fill="black"/><rect x="13" y="9" width="1" height="1" fill="black"/><rect x="14" y="9" width="1" height="1" fill="black"/><rect x="15" y="9" width="1" height="1" fill="black"/><rect x="17" y="9" width="1" height="1" fill="black"/><rect x="19" y="9" width="1" height="1" fill="black"/><rect x="20" y="9" width="1" height="1" fill="black"/><rect x="26" y="9" width="1" height="1" fill="black"/><rect x="29" y="9" width="1" height="1" fill="black"/><rect x="32" y="9" width="1" height="1" fill="black"/><rect x="33" y="9" width="1" height="1" fill="black"/><rect x="35" y="9" width="1" height="1" fill="black"/><rect x="36" y="9" width="1" height="1" fill="black"/><rect x="38" y="9" width="1" height="1" fill="black"/><rect x="44" y="9" width="1" height="1" fill="black"/><rect x="4" y="10" width="1" height="1" fill="black"/><rect x="5" y="10" width="1" height="1" fill="black"/><rect x="6" y="10" width="1" height="1" fill="black"/><rect x="7" y="10" width="1" height="1" fill="black"/><rect x="8" y="10" width="1" height="1" fill="black"/><rect x="9" y="10" width="1" height="1" fill="black"/><rect x="10" y="10" width="1" height="1" fill="black"/><rect x="12" y="10" width="1" height="1" fill="black"/><rect x="14" y="10" width="1" height="1" fill="black"/><rect x="16" y="10" width="1" height="1" fill="black"/><rect x="18" y="10" width="1" height="1" fill="black"/><rect x="20" y="10" width="1" height="1" fill="black"/><rect x="22" y="10" width="1" height="1" fill="black"/><rect x="24" y="10" width="1" height="1" fill="black"/><rect x="26" y="10" width="1" height="1" fill="black"/><rect x="28" y="10" width="1" height="1" fill="black"/><rect x="30" y="10" width="1" height="1" fill="black"/><rect x="32" y="10" width="1" height="1" fill="black"/><rect x="34" y="10" width="1" height="1" fill="black"/><rect x="36" y="10" width="1" height="1" fill="black"/><rect x="38" y="10" width="1" height="1" fill="black"/><rect x="39" y="10" width="1" height="1" fill="black"/><rect x="40" y="10" width="1" height="1" fill="black"/><rect x="41" y="10" width="1" height="1" fill="black"/><rect x="42" y="10" width="1" height="1" fill="black"/><rect x="43" y="10" width="1" height="1" fill="black"/><rect x="44" y="10" width="1" height="1" fill="black"/><rect x="14" y="11" width="1" height="1" fill="black"/><rect x="15" y="11" width="1" height="1" fill="black"/><rect x="16" y="11" width="1" height="1" fill="black"/><rect x="19" y="11" width="1" height="1" fill="black"/><rect x="20" y="11" width="1" height="1" fill="black"/><rect x="21" y="11" width="1" height="1" fill="black"/><rect x="23" y="11" width="1" height="1" fill="black"/><rect x="27" y="11" width="1" height="1" fill="black"/><rect x="30" y="11" width="1" height="1" fill="black"/><rect x="33" y="11" width="1" height="1" fill="black"/><rect x="35" y="11" width="1" height="1" fill="black"/><rect x="36" y="11" width="1" height="1" fill="black"/><rect x="4" y="12" width="1" height="1" fill="black"/><rect x="5" y="12" width="1" height="1" fill="black"/><rect x="6" y="12" width="1" height="1" fill="black"/><rect x="7" y="12" width="1" height="1" fill="black"/><rect x="10" y="12" width="1" height="1" fill="black"/><rect x="12" y="12" width="1" height="1" fill="black"/><rect x="13" y="12" width="1" height="1" fill="black"/><rect x="14" y="12" width="1" height="1" fill="black"/><rect x="18" y="12" width="1" height="1" fill="black"/><rect x="19" y="12" width="1" height="1" fill="black"/><rect x="20" y="12" width="1" height="1" fill="black"/><rect x="21" y="12" width="1" height="1" fill="black"/><rect x="25" y="12" width="1" height="1" fill="black"/><rect x="29" y="12" width="1" height="1" fill="black"/><rect x="30" y="12" width="1" height="1" fill="black"/><rect x="32" y="12" width="1" height="1" fill="black"/><rect x="33" y="12" width="1" height="1" fill="black"/><rect x="35" y="12" width="1" height="1" fill="black"/><rect x="37" y="12" width="1" height="1" fill="black"/><rect x="40" y="12" width="1" height="1" fill="black"/><rect x="41" y="12" width="1" height="1" fill="black"/><rect x="42" y="12" width="1" height="1" fill="black"/><rect x="44" y="12" width="1" height="1" fill="black"/><rect x="4" y="13" width="1" height="1" fill="black"/><rect x="8" y="13" width="1" height="1" fill="black"/><rect x="13" y="13" width="1" height="1" fill="black"/><rect x="17" y="13" width="1" height="1" fill="black"/><rect x="20" y="13" width="1" height="1" fill="black"/><rect x="21" y="13" width="1" height="1" fill="black"/><rect x="23" y="13" width="1" height="1" fill="black"/><rect x="25" y="13" width="1" height="1" fill="black"/><rect x="27" y="13" width="1" height="1" fill="black"/><rect x="30" y="13" width="1" height="1" fill="black"/><rect x="31" y="13" width="1" height="1" fill="black"/><rect x="33" y="13" width="1" height="1" fill="black"/><rect x="34" y="13" width="1" height="1" fill="black"/><rect x="35" y="13" width="1" height="1" fill="black"/><rect x="36" y="13" width="1" height="1" fill="black"/><rect x="38" y="13" width="1" height="1" fill="black"/><rect x="40" y="13" width="1" height="1" fill="black"/><rect x="41" y="13" width="1" height="1" fill="black"/><rect x="43" y="13" width="1" height="1" fill="black"/><rect x="44" y="13" width="1" height="1" fill="black"/><rect x="6" y="14" width="1" height="1" fill="black"/><rect x="7" y="14" width="1" height="1" fill="black"/><rect x="9" y="14" width="1" height="1" fill="black"/><rect x="10" y="14" width="1" height="1" fill="black"/><rect x="11" y="14" width="1" height="1" fill="black"/><rect x="12" y="14" width="1" height="1" fill="black"/><rect x="17" y="14" width="1" height="1" fill="black"/><rect x="20" y="14" width="1" height="1" fill="black"/><rect x="22" y="14" width="1" height="1" fill="black"/><rect x="24" y="14" width="1" height="1" fill="black"/><rect x="27" y="14" width="1" height="1" fill="black"/><rect x="28" y="14" width="1" height="1" fill="black"/><rect x="30" y="14" width="1" height="1" fill="black"/><rect x="32" y="14" width="1" height="1" fill="black"/><rect x="34" y="14" width="1" height="1" fill="black"/><rect x="36" y="14" width="1" height="1" fill="black"/><rect x="37" y="14" width="1" height="1" fill="black"/><rect x="38" y="14" width="1" height="1" fill="black"/><rect x="39" y="14" width="1" height="1" fill="black"/><rect x="41" y="14" width="1" height="1" fill="black"/><rect x="42" y="14" width="1" height="1" fill="black"/><rect x="43" y="14" width="1" height="1" fill="black"/><rect x="6" y="15" width="1" height="1" fill="black"/><rect x="8" y="15" width="1" height="1" fill="black"/><rect x="11" y="15" width="1" height="1" fill="black"/><rect x="13" y="15" width="1" height="1" fill="black"/><rect x="20" y="15" width="1" height="1" fill="black"/><rect x="21" y="15" width="1" height="1" fill="black"/><rect x="27" y="15" width="1" height="1" fill="black"/><rect x="28" y="15" width="1" height="1" fill="black"/><rect x="29" y="15" width="1" height="1" fill="black"/><rect x="30" y="15" width="1" height="1" fill="black"/><rect x="35" y="15" width="1" height="1" fill="black"/><rect x="37" y="15" width="1" height="1" fill="black"/><rect x="38" y="15" width="1" height="1" fill="black"/><rect x="43" y="15" width="1" height="1" fill="black"/><rect x="44" y="15" width="1" height="1" fill="black"/><rect x="6" y="16" width="1" height="1" fill="black"/><rect x="7" y="16" width="1" height="1" fill="black"/><rect x="8" y="16" width="1" height="1" fill="black"/><rect x="10" y="16" width="1" height="1" fill="black"/><rect x="11" y="16" width="1" height="1" fill="black"/><rect x="12" y="16" width="1" height="1" fill="black"/><rect x="13" y="16" width="1" height="1" fill="black"/><rect x="15" y="16" width="1" height="1" fill="black"/><rect x="18" y="16" width="1" height="1" fill="black"/><rect x="19" y="16" width="1" height="1" fill="black"/><rect x="20" y="16" width="1" height="1" fill="black"/><rect x="23" y="16" width="1" height="1" fill="black"/><rect x="24" y="16" width="1" height="1" fill="black"/><rect x="25" y="16" width="1" height="1" fill="black"/><rect x="26" y="16" width="1" height="1" fill="black"/><rect x="27" y="16" width="1" height="1" fill="black"/><rect x="28" y="16" width="1" height="1" fill="black"/><rect x="29" y="16" width="1" height="1" fill="black"/><rect x="30" y="16" width="1" height="1" fill="black"/><rect x="31" y="16" width="1" height="1" fill="black"/><rect x="33" y="16" width="1" height="1" fill="black"/><rect x="34" y="16" width="1" height="1" fill="black"/><rect x="36" y="16" width="1" height="1" fill="black"/><rect x="40" y="16" width="1" height="1" fill="black"/><rect x="42" y="16" width="1" height="1" fill="black"/><rect x="43" y="16" width="1" height="1" fill="black"/><rect x="44" y="16" width="1" height="1" fill="black"/><rect x="4" y="17" width="1" height="1" fill="black"/><rect x="9" y="17" width="1" height="1" fill="black"/><rect x="12" y="17" width="1" height="1" fill="black"/><rect x="13" y="17" width="1" height="1" fill="black"/><rect x="15" y="17" width="1" height="1" fill="black"/><rect x="17" y="17" width="1" height="1" fill="black"/><rect x="18" y="17" width="1" height="1" fill="black"/><rect x="21" y="17" width="1" height="1" fill="black"/><rect x="24" y="17" width="1" height="1" fill="black"/><rect x="26" y="17" width="1" height="1" fill="black"/><rect x="30" y="17" width="1" height="1" fill="black"/><rect x="31" y="17" width="1" height="1" fill="black"/><rect x="33" y="17" width="1" height="1" fill="black"/><rect x="38" y="17" width="1" height="1" fill="black"/><rect x="42" y="17" width="1" height="1" fill="black"/><rect x="43" y="17" width="1" height="1" fill="black"/><rect x="44" y="17" width="1" height="1" fill="black"/><rect x="4" y="18" width="1" height="1" fill="black"/><rect x="5" y="18" width="1" height="1" fill="black"/><rect x="6" y="18" width="1" height="1" fill="black"/><rect x="7" y="18" width="1" height="1" fill="black"/><rect x="10" y="18" width="1" height="1" fill="black"/><rect x="12" y="18" width="1" height="1" fill="black"/><rect x="13" y="18" width="1" height="1" fill="black"/><rect x="14" y="18" width="1" height="1" fill="black"/><rect x="16" y="18" width="1" height="1" fill="black"/><rect x="18" y="18" width="1" height="1" fill="black"/><rect x="22" y="18" width="1" height="1" fill="black"/><rect x="23" y="18" width="1" height="1" fill="black"/><rect x="24" y="18" width="1" height="1" fill="black"/><rect x="25" y="18" width="1" height="1" fill="black"/><rect x="29" y="18" width="1" height="1" fill="black"/><rect x="30" y="18" width="1" height="1" fill="black"/><rect x="32" y="18" width="1" height="1" fill="black"/><rect x="35" y="18" width="1" height="1" fill="black"/><rect x="38" y="18" width="1" height="1" fill="black"/><rect x="42" y="18" width="1" height="1" fill="black"/><rect x="43" y="18" width="1" height="1" fill="black"/><rect x="44" y="18" width="1" height="1" fill="black"/><rect x="5" y="19" width="1" height="1" fill="black"/><rect x="7" y="19" width="1" height="1" fill="black"/><rect x="8" y="19" width="1" height="1" fill="black"/><rect x="9" y="19" width="1" height="1" fill="black"/><rect x="11" y="19" width="1" height="1" fill="black"/><rect x="14" y="19" width="1" height="1" fill="black"/><rect x="16" y="19" width="1" height="1" fill="black"/><rect x="18" y="19" width="1" height="1" fill="black"/><rect x="19" y="19" width="1" height="1" fill="black"/><rect x="25" y="19" width="1" height="1" fill="black"/><rect x="26" y="19" width="1" height="1" fill="black"/><rect x="27" y="19" width="1" height="1" fill="black"/><rect x="30" y="19" width="1" height="1" fill="black"/><rect x="34" y="19" width="1" height="1" fill="black"/><rect x="37" y="19" width="1" height="1" fill="black"/><rect x="40" y="19" width="1" height="1" fill="black"/><rect x="41" y="19" width="1" height="1" fill="black"/><rect x="43" y="19" width="1" height="1" fill="black"/><rect x="44" y="19" width="1" height="1" fill="black"/><rect x="6" y="20" width="1" height="1" fill="black"/><rect x="7" y="20" width="1" height="1" fill="black"/><rect x="9" y="20" width="1" height="1" fill="black"/><rect x="10" y="20" width="1" height="1" fill="black"/><rect x="11" y="20" width="1" height="1" fill="black"/><rect x="13" y="20" width="1" height="1" fill="black"/><rect x="15" y="20" width="1" height="1" fill="black"/><rect x="17" y="20" width="1" height="1" fill="black"/><rect x="21" y="20" width="1" height="1" fill="black"/><rect x="25" y="20" width="1" height="1" fill="black"/><rect x="26" y="20" width="1" height="1" fill="black"/><rect x="29" y="20" width="1" height="1" fill="black"/><rect x="31" y="20" width="1" height="1" fill="black"/><rect x="33" y="20" width="1" height="1" fill="black"/><rect x="34" y="20" width="1" height="1" fill="black"/><rect x="40" y="20" width="1" height="1" fill="black"/><rect x="6" y="21" width="1" height="1" fill="black"/><rect x="9" y="21" width="1" height="1" fill="black"/><rect x="11" y="21" width="1" height="1" fill="black"/><rect x="12" y="21" width="1" height="1" fill="black"/><rect x="13" y="21" width="1" height="1" fill="black"/><rect x="14" y="21" width="1" height="1" fill="black"/><rect x="15" y="21" width="1" height="1" fill="black"/><rect x="16" y="21" width="1" height="1" fill="black"/><rect x="17" y="21" width="1" height="1" fill="black"/><rect x="19" y="21" width="1" height="1" fill="black"/><rect x="26" y="21" width="1" height="1" fill="black"/><rect x="27" y="21" width="1" height="1" fill="black"/><rect x="28" y="21" width="1" height="1" fill="black"/><rect x="36" y="21" width="1" height="1" fill="black"/><rect x="37" y="21" width="1" height="1" fill="black"/><rect x="41" y="21" width="1" height="1" fill="black"/><rect x="4" y="22" width="1" height="1" fill="black"/><rect x="6" y="22" width="1" height="1" fill="black"/><rect x="7" y="22" width="1" height="1" fill="black"/><rect x="8" y="22" width="1" height="1" fill="black"/><rect x="10" y="22" width="1" height="1" fill="black"/><rect x="11" y="22" width="1" height="1" fill="black"/><rect x="14" y="22" width="1" height="1" fill="black"/><rect x="19" y="22" width="1" height="1" fill="black"/><rect x="20" y="22" width="1" height="1" fill="black"/><rect x="22" y="22" width="1" height="1" fill="black"/><rect x="25" y="22" width="1" height="1" fill="black"/><rect x="26" y="22" width="1" height="1" fill="black"/><rect x="31" y="22" width="1" height="1" fill="black"/><rect x="32" y="22" width="1" height="1" fill="black"/><rect x="34" y="22" width="1" height="1" fill="black"/><rect x="36" y="22" width="1" height="1" fill="black"/><rect x="37" y="22" width="1" height="1" fill="black"/><rect x="40" y="22" width="1" height="1" fill="black"/><rect x="42" y="22" width="1" height="1" fill="black"/><rect x="6" y="23" width="1" height="1" fill="black"/><rect x="8" y="23" width="1" height="1" fill="black"/><rect x="9" y="23" width="1" height="1" fill="black"/><rect x="11" y="23" width="1" height="1" fill="black"/><rect x="12" y="23" width="1" height="1" fill="black"/><rect x="15" y="23" width="1" height="1" fill="black"/><rect x="16" y="23" width="1" height="1" fill="black"/><rect x="19" y="23" width="1" height="1" fill="black"/><rect x="21" y="23" width="1" height="1" fill="black"/><rect x="22" y="23" width="1" height="1" fill="black"/><rect x="27" y="23" width="1" height="1" fill="black"/><rect x="33" y="23" width="1" height="1" fill="black"/><rect x="36" y="23" width="1" height="1" fill="black"/><rect x="37" y="23" width="1" height="1" fill="black"/><rect x="39" y="23" width="1" height="1" fill="black"/><rect x="41" y="23" width="1" height="1" fill="black"/><rect x="42" y="23" width="1" height="1" fill="black"/><rect x="44" y="23" width="1" height="1" fill="black"/><rect x="4" y="24" width="1" height="1" fill="black"/><rect x="5" y="24" width="1" height="1" fill="black"/><rect x="10" y="24" width="1" height="1" fill="black"/><rect x="12" y="24" width="1" height="1" fill="black"/><rect x="17" y="24" width="1" height="1" fill="black"/><rect x="20" y="24" width="1" height="1" fill="black"/><rect x="27" y="24" width="1" height="1" fill="black"/><rect x="30" y="24" width="1" height="1" fill="black"/><rect x="31" y="24" width="1" height="1" fill="black"/><rect x="32" y="24" width="1" height="1" fill="black"/><rect x="34" y="24" width="1" height="1" fill="black"/><rect x="37" y="24" width="1" height="1" fill="black"/><rect x="38" y="24" width="1" height="1" fill="black"/><rect x="40" y="24" width="1" height="1" fill="black"/><rect x="42" y="24" width="1" height="1" fill="black"/><rect x="43" y="24" width="1" height="1" fill="black"/><rect x="44" y="24" width="1" height="1" fill="black"/><rect x="6" y="25" width="1" height="1" fill="black"/><rect x="9" y="25" width="1" height="1" fill="black"/><rect x="11" y="25" width="1" height="1" fill="black"/><rect x="14" y="25" width="1" height="1" fill="black"/><rect x="17" y="25" width="1" height="1" fill="black"/><rect x="18" y="25" width="1" height="1" fill="black"/><rect x="19" y="25" width="1" height="1" fill="black"/><rect x="20" y="25" width="1" height="1" fill="black"/><rect x="21" y="25" width="1" height="1" fill="black"/><rect x="24" y="25" width="1" height="1" fill="black"/><rect x="25" y="25" width="1" height="1" fill="black"/><rect x="30" y="25" width="1" height="1" fill="black"/><rect x="31" y="25" width="1" height="1" fill="black"/><rect x="33" y="25" width="1" height="1" fill="black"/><rect x="34" y="25" width="1" height="1" fill="black"/><rect x="35" y="25" width="1" height="1" fill="black"/><rect x="38" y="25" width="1" height="1" fill="black"/><rect x="40" y="25" width="1" height="1" fill="black"/><rect x="4" y="26" width="1" height="1" fill="black"/><rect x="5" y="26" width="1" height="1" fill="black"/><rect x="7" y="26" width="1" height="1" fill="black"/><rect x="10" y="26" width="1" height="1" fill="black"/><rect x="11" y="26" width="1" height="1" fill="black"/><rect x="12" y="26" width="1" height="1" fill="black"/><rect x="14" y="26" width="1" height="1" fill="black"/><rect x="17" y="26" width="1" height="1" fill="black"/><rect x="19" y="26" width="1" height="1" fill="black"/><rect x="23" y="26" width="1" height="1" fill="black"/><rect x="24" y="26" width="1" height="1" fill="black"/><rect x="26" y="26" width="1" height="1" fill="black"/><rect x="27" y="26" width="1" height="1" fill="black"/><rect x="28" y="26" width="1" height="1" fill="black"/><rect x="29" y="26" width="1" height="1" fill="black"/><rect x="30" y="26" width="1" height="1" fill="black"/><rect x="32" y="26" width="1" height="1" fill="black"/><rect x="33" y="26" width="1" height="1" fill="black"/><rect x="34" y="26" width="1" height="1" fill="black"/><rect x="36" y="26" width="1" height="1" fill="black"/><rect x="37" y="26" width="1" height="1" fill="black"/><rect x="39" y="26" width="1" height="1" fill="black"/><rect x="40" y="26" width="1" height="1" fill="black"/><rect x="41" y="26" width="1" height="1" fill="black"/><rect x="42" y="26" width="1" height="1" fill="black"/><rect x="43" y="26" width="1" height="1" fill="black"/><rect x="5" y="27" width="1" height="1" fill="black"/><rect x="7" y="27" width="1" height="1" fill="black"/><rect x="8" y="27" width="1" height="1" fill="black"/><rect x="11" y="27" width="1" height="1" fill="black"/><rect x="15" y="27" width="1" height="1" fill="black"/><rect x="16" y="27" width="1" height="1" fill="black"/><rect x="17" y="27" width="1" height="1" fill="black"/><rect x="19" y="27" width="1" height="1" fill="black"/><rect x="24" y="27" width="1" height="1" fill="black"/><rect x="29" y="27" width="1" height="1" fill="black"/><rect x="32" y="27" width="1" height="1" fill="black"/><rect x="34" y="27" width="1" height="1" fill="black"/><rect x="37" y="27" width="1" height="1" fill="black"/><rect x="38" y="27" width="1" height="1" fill="black"/><rect x="40" y="27" width="1" height="1" fill="black"/><rect x="41" y="27" width="1" height="1" fill="black"/><rect x="44" y="27" width="1" height="1" fill="black"/><rect x="4" y="28" width="1" height="1" fill="black"/><rect x="6" y="28" width="1" height="1" fill="black"/><rect x="8" y="28" width="1" height="1" fill="black"/><rect x="10" y="28" width="1" height="1" fill="black"/><rect x="12" y="28" width="1" height="1" fill="black"/><rect x="14" y="28" width="1" height="1" fill="black"/><rect x="15" y="28" width="1" height="1" fill="black"/><rect x="16" y="28" width="1" height="1" fill="black"/><rect x="17" y="28" width="1" height="1" fill="black"/><rect x="21" y="28" width="1" height="1" fill="black"/><rect x="22" y="28" width="1" height="1" fill="black"/><rect x="23" y="28" width="1" height="1" fill="black"/><rect x="26" y="28" width="1" height="1" fill="black"/><rect x="27" y="28" width="1" height="1" fill="black"/><rect x="28" y="28" width="1" height="1" fill="black"/><rect x="29" y="28" width="1" height="1" fill="black"/><rect x="30" y="28" width="1" height="1" fill="black"/><rect x="31" y="28" width="1" height="1" fill="black"/><rect x="35" y="28" width="1" height="1" fill="black"/><rect x="37" y="28" width="1" height="1" fill="black"/><rect x="39" y="28" width="1" height="1" fill="black"/><rect x="41" y="28" width="1" height="1" fill="black"/><rect x="42" y="28" width="1" height="1" fill="black"/><rect x="43" y="28" width="1" height="1" fill="black"/><rect x="6" y="29" width="1" height="1" fill="black"/><rect x="7" y="29" width="1" height="1" fill="black"/><rect x="12" y="29" width="1" height="1" fill="black"/><rect x="14" y="29" width="1" height="1" fill="black"/><rect x="16" y="29" width="1" height="1" fill="black"/><rect x="17" y="29" width="1" height="1" fill="black"/><rect x="18" y="29" width="1" height="1" fill="black"/><rect x="19" y="29" width="1" height="1" fill="black"/><rect x="20" y="29" width="1" height="1" fill="black"/><rect x="23" y="29" width="1" height="1" fill="black"/><rect x="25" y="29" width="1" height="1" fill="black"/><rect x="28" y="29" width="1" height="1" fill="black"/><rect x="30" y="29" width="1" height="1" fill="black"/><rect x="32" y="29" width="1" height="1" fill="black"/><rect x="35" y="29" width="1" height="1" fill="black"/><rect x="39" y="29" width="1" height="1" fill="black"/><rect x="42" y="29" width="1" height="1" fill="black"/><rect x="44" y="29" width="1" height="1" fill="black"/><rect x="4" y="30" width="1" height="1" fill="black"/><rect x="5" y="30" width="1" height="1" fill="black"/><rect x="6" y="30" width="1" height="1" fill="black"/><rect x="7" y="30" width="1" height="1" fill="black"/><rect x="8" y="30" width="1" height="1" fill="black"/><rect x="9" y="30" width="1" height="1" fill="black"/><rect x="10" y="30" width="1" height="1" fill="black"/><rect x="13" y="30" width="1" height="1" fill="black"/><rect x="14" y="30" width="1" height="1" fill="black"/><rect x="18" y="30" width="1" height="1" fill="black"/><rect x="21" y="30" width="1" height="1" fill="black"/><rect x="22" y="30" width="1" height="1" fill="black"/><rect x="23" y="30" width="1" height="1" fill="black"/><rect x="24" y="30" width="1" height="1" fill="black"/><rect x="25" y="30" width="1" height="1" fill="black"/><rect x="28" y="30" width="1" height="1" fill="black"/><rect x="32" y="30" width="1" height="1" fill="black"/><rect x="34" y="30" width="1" height="1" fill="black"/><rect x="35" y="30" width="1" height="1" fill="black"/><rect x="38" y="30" width="1" height="1" fill="black"/><rect x="41" y="30" width="1" height="1" fill="black"/><rect x="42" y="30" width="1" height="1" fill="black"/><rect x="43" y="30" width="1" height="1" fill="black"/><rect x="44" y="30" width="1" height="1" fill="black"/><rect x="5" y="31" width="1" height="1" fill="black"/><rect x="13" y="31" width="1" height="1" fill="black"/><rect x="16" y="31" width="1" height="1" fill="black"/><rect x="17" y="31" width="1" height="1" fill="black"/><rect x="19" y="31" width="1" height="1" fill="black"/><rect x="21" y="31" width="1" height="1" fill="black"/><rect x="22" y="31" width="1" height="1" fill="black"/><rect x="25" y="31" width="1" height="1" fill="black"/><rect x="26" y="31" width="1" height="1" fill="black"/><rect x="27" y="31" width="1" height="1" fill="black"/><rect x="28" y="31" width="1" height="1" fill="black"/><rect x="30" y="31" width="1" height="1" fill="black"/><rect x="31" y="31" width="1" height="1" fill="black"/><rect x="36" y="31" width="1" height="1" fill="black"/><rect x="37" y="31" width="1" height="1" fill="black"/><rect x="38" y="31" width="1" height="1" fill="black"/><rect x="40" y="31" width="1" height="1" fill="black"/><rect x="41" y="31" width="1" height="1" fill="black"/><rect x="4" y="32" width="1" height="1" fill="black"/><rect x="6" y="32" width="1" height="1" fill="black"/><rect x="7" y="32" width="1" height="1" fill="black"/><rect x="8" y="32" width="1" height="1" fill="black"/><rect x="10" y="32" width="1" height="1" fill="black"/><rect x="12" y="32" width="1" height="1" fill="black"/><rect x="14" y="32" width="1" height="1" fill="black"/><rect x="15" y="32" width="1" height="1" fill="black"/><rect x="16" y="32" width="1" height="1" fill="black"/><rect x="19" y="32" width="1" height="1" fill="black"/><rect x="20" y="32" width="1" height="1" fill="black"/><rect x="21" y="32" width="1" height="1" fill="black"/><rect x="22" y="32" width="1" height="1" fill="black"/><rect x="27" y="32" width="1" height="1" fill="black"/><rect x="29" y="32" width="1" height="1" fill="black"/><rect x="30" y="32" width="1" height="1" fill="black"/><rect x="33" y="32" width="1" height="1" fill="black"/><rect x="34" y="32" width="1" height="1" fill="black"/><rect x="37" y="32" width="1" height="1" fill="black"/><rect x="39" y="32" width="1" height="1" fill="black"/><rect x="44" y="32" width="1" height="1" fill="black"/><rect x="5" y="33" width="1" height="1" fill="black"/><rect x="6" y="33" width="1" height="1" fill="black"/><rect x="9" y="33" width="1" height="1" fill="black"/><rect x="11" y="33" width="1" height="1" fill="black"/><rect x="12" y="33" width="1" height="1" fill="black"/><rect x="14" y="33" width="1" height="1" fill="black"/><rect x="17" y="33" width="1" height="1" fill="black"/><rect x="20" y="33" width="1" height="1" fill="black"/><rect x="23" y="33" width="1" height="1" fill="black"/><rect x="25" y="33" width="1" height="1" fill="black"/><rect x="26" y="33" width="1" height="1" fill="black"/><rect x="28" y="33" width="1" height="1" fill="black"/><rect x="30" y="33" width="1" height="1" fill="black"/><rect x="33" y="33" width="1" height="1" fill="black"/><rect x="41" y="33" width="1" height="1" fill="black"/><rect x="42" y="33" width="1" height="1" fill="black"/><rect x="4" y="34" width="1" height="1" fill="black"/><rect x="6" y="34" width="1" height="1" fill="black"/><rect x="7" y="34" width="1" height="1" fill="black"/><rect x="10" y="34" width="1" height="1" fill="black"/><rect x="11" y="34" width="1" height="1" fill="black"/><rect x="12" y="34" width="1" height="1" fill="black"/><rect x="13" y="34" width="1" height="1" fill="black"/><rect x="19" y="34" width="1" height="1" fill="black"/><rect x="20" y="34" width="1" height="1" fill="black"/><rect x="22" y="34" width="1" height="1" fill="black"/><rect x="24" y="34" width="1" height="1" fill="black"/><rect x="26" y="34" width="1" height="1" fill="black"/><rect x="31" y="34" width="1" height="1" fill="black"/><rect x="32" y="34" width="1" height="1" fill="black"/><rect x="33" y="34" width="1" height="1" fill="black"/><rect x="36" y="34" width="1" height="1" fill="black"/><rect x="37" y="34" width="1" height="1" fill="black"/><rect x="38" y="34" width="1" height="1" fill="black"/><rect x="42" y="34" width="1" height="1" fill="black"/><rect x="43" y="34" width="1" height="1" fill="black"/><rect x="6" y="35" width="1" height="1" fill="black"/><rect x="7" y="35" width="1" height="1" fill="black"/><rect x="8" y="35" width="1" height="1" fill="black"/><rect x="12" y="35" width="1" height="1" fill="black"/><rect x="15" y="35" width="1" height="1" fill="black"/><rect x="18" y="35" width="1" height="1" fill="black"/><rect x="21" y="35" width="1" height="1" fill="black"/><rect x="24" y="35" width="1" height="1" fill="black"/><rect x="31" y="35" width="1" height="1" fill="black"/><rect x="33" y="35" width="1" height="1" fill="black"/><rect x="34" y="35" width="1" height="1" fill="black"/><rect x="36" y="35" width="1" height="1" fill="black"/><rect x="38" y="35" width="1" height="1" fill="black"/><rect x="42" y="35" width="1" height="1" fill="black"/><rect x="44" y="35" width="1" height="1" fill="black"/><rect x="5" y="36" width="1" height="1" fill="black"/><rect x="7" y="36" width="1" height="1" fill="black"/><rect x="9" y="36" width="1" height="1" fill="black"/><rect x="10" y="36" width="1" height="1" fill="black"/><rect x="11" y="36" width="1" height="1" fill="black"/><rect x="12" y="36" width="1" height="1" fill="black"/><rect x="13" y="36" width="1" height="1" fill="black"/><rect x="14" y="36" width="1" height="1" fill="black"/><rect x="16" y="36" width="1" height="1" fill="black"/><rect x="18" y="36" width="1" height="1" fill="black"/><rect x="20" y="36" width="1" height="1" fill="black"/><rect x="22" y="36" width="1" height="1" fill="black"/><rect x="23" y="36" width="1" height="1" fill="black"/><rect x="25" y="36" width="1" height="1" fill="black"/><rect x="30" y="36" width="1" height="1" fill="black"/><rect x="34" y="36" width="1" height="1" fill="black"/><rect x="35" y="36" width="1" height="1" fill="black"/><rect x="36" y="36" width="1" height="1" fill="black"/><rect x="37" y="36" width="1" height="1" fill="black"/><rect x="38" y="36" width="1" height="1" fill="black"/><rect x="39" y="36" width="1" height="1" fill="black"/><rect x="40" y="36" width="1" height="1" fill="black"/><rect x="41" y="36" width="1" height="1" fill="black"/><rect x="42" y="36" width="1" height="1" fill="black"/><rect x="43" y="36" width="1" height="1" fill="black"/><rect x="12" y="37" width="1" height="1" fill="black"/><rect x="14" y="37" width="1" height="1" fill="black"/><rect x="15" y="37" width="1" height="1" fill="black"/><rect x="20" y="37" width="1" height="1" fill="black"/><rect x="23" y="37" width="1" height="1" fill="black"/><rect x="24" y="37" width="1" height="1" fill="black"/><rect x="27" y="37" width="1" height="1" fill="black"/><rect x="29" y="37" width="1" height="1" fill="black"/><rect x="31" y="37" width="1" height="1" fill="black"/><rect x="32" y="37" width="1" height="1" fill="black"/><rect x="34" y="37" width="1" height="1" fill="black"/><rect x="35" y="37" width="1" height="1" fill="black"/><rect x="36" y="37" width="1" height="1" fill="black"/><rect x="40" y="37" width="1" height="1" fill="black"/><rect x="41" y="37" width="1" height="1" fill="black"/><rect x="42" y="37" width="1" height="1" fill="black"/><rect x="43" y="37" width="1" height="1" fill="black"/><rect x="44" y="37" width="1" height="1" fill="black"/><rect x="4" y="38" width="1" height="1" fill="black"/><rect x="5" y="38" width="1" height="1" fill="black"/><rect x="6" y="38" width="1" height="1" fill="black"/><rect x="7" y="38" width="1" height="1" fill="black"/><rect x="8" y="38" width="1" height="1" fill="black"/><rect x="9" y="38" width="1" height="1" fill="black"/><rect x="10" y="38" width="1" height="1" fill="black"/><rect x="13" y="38" width="1" height="1" fill="black"/><rect x="14" y="38" width="1" height="1" fill="black"/><rect x="15" y="38" width="1" height="1" fill="black"/><rect x="16" y="38" width="1" height="1" fill="black"/><rect x="18" y="38" width="1" height="1" fill="black"/><rect x="21" y="38" width="1" height="1" fill="black"/><rect x="24" y="38" width="1" height="1" fill="black"/><rect x="25" y="38" width="1" height="1" fill="black"/><rect x="27" y="38" width="1" height="1" fill="black"/><rect x="28" y="38" width="1" height="1" fill="black"/><rect x="29" y="38" width="1" height="1" fill="black"/><rect x="30" y="38" width="1" height="1" fill="black"/><rect x="32" y="38" width="1" height="1" fill="black"/><rect x="33" y="38" width="1" height="1" fill="black"/><rect x="36" y="38" width="1" height="1" fill="black"/><rect x="38" y="38" width="1" height="1" fill="black"/><rect x="40" y="38" width="1" height="1" fill="black"/><rect x="41" y="38" width="1" height="1" fill="black"/><rect x="43" y="38" width="1" height="1" fill="black"/><rect x="4" y="39" width="1" height="1" fill="black"/><rect x="10" y="39" width="1" height="1" fill="black"/><rect x="13" y="39" width="1" height="1" fill="black"/><rect x="15" y="39" width="1" height="1" fill="black"/><rect x="17" y="39" width="1" height="1" fill="black"/><rect x="18" y="39" width="1" height="1" fill="black"/><rect x="19" y="39" width="1" height="1" fill="black"/><rect x="20" y="39" width="1" height="1" fill="black"/><rect x="22" y="39" width="1" height="1" fill="black"/><rect x="26" y="39" width="1" height="1" fill="black"/><rect x="29" y="39" width="1" height="1" fill="black"/><rect x="31" y="39" width="1" height="1" fill="black"/><rect x="34" y="39" width="1" height="1" fill="black"/><rect x="36" y="39" width="1" height="1" fill="black"/><rect x="40" y="39" width="1" height="1" fill="black"/><rect x="41" y="39" width="1" height="1" fill="black"/><rect x="43" y="39" width="1" height="1" fill="black"/><rect x="4" y="40" width="1" height="1" fill="black"/><rect x="6" y="40" width="1" height="1" fill="black"/><rect x="7" y="40" width="1" height="1" fill="black"/><rect x="8" y="40" width="1" height="1" fill="black"/><rect x="10" y="40" width="1" height="1" fill="black"/><rect x="13" y="40" width="1" height="1" fill="black"/><rect x="16" y="40" width="1" height="1" fill="black"/><rect x="19" y="40" width="1" height="1" fill="black"/><rect x="22" y="40" width="1" height="1" fill="black"/><rect x="25" y="40" width="1" height="1" fill="black"/><rect x="29" y="40" width="1" height="1" fill="black"/><rect x="36" y="40" width="1" height="1" fill="black"/><rect x="37" y="40" width="1" height="1" fill="black"/><rect x="38" y="40" width="1" height="1" fill="black"/><rect x="39" y="40" width="1" height="1" fill="black"/><rect x="40" y="40" width="1" height="1" fill="black"/><rect x="41" y="40" width="1" height="1" fill="black"/><rect x="42" y="40" width="1" height="1" fill="black"/><rect x="43" y="40" width="1" height="1" fill="black"/><rect x="4" y="41" width="1" height="1" fill="black"/><rect x="6" y="41" width="1" height="1" fill="black"/><rect x="7" y="41" width="1" height="1" fill="black"/><rect x="8" y="41" width="1" height="1" fill="black"/><rect x="10" y="41" width="1" height="1" fill="black"/><rect x="12" y="41" width="1" height="1" fill="black"/><rect x="13" y="41" width="1" height="1" fill="black"/><rect x="14" y="41" width="1" height="1" fill="black"/><rect x="15" y="41" width="1" height="1" fill="black"/><rect x="16" y="41" width="1" height="1" fill="black"/><rect x="20" y="41" width="1" height="1" fill="black"/><rect x="21" y="41" width="1" height="1" fill="black"/><rect x="22" y="41" width="1" height="1" fill="black"/><rect x="27" y="41" width="1" height="1" fill="black"/><rect x="28" y="41" width="1" height="1" fill="black"/><rect x="30" y="41" width="1" height="1" fill="black"/><rect x="32" y="41" width="1" height="1" fill="black"/><rect x="34" y="41" width="1" height="1" fill="black"/><rect x="36" y="41" width="1" height="1" fill="black"/><rect x="39" y="41" width="1" height="1" fill="black"/><rect x="40" y="41" width="1" height="1" fill="black"/><rect x="42" y="41" width="1" height="1" fill="black"/><rect x="44" y="41" width="1" height="1" fill="black"/><rect x="4" y="42" width="1" height="1" fill="black"/><rect x="6" y="42" width="1" height="1" fill="black"/><rect x="7" y="42" width="1" height="1" fill="black"/><rect x="8" y="42" width="1" height="1" fill="black"/><rect x="10" y="42" width="1" height="1" fill="black"/><rect x="12" y="42" width="1" height="1" fill="black"/><rect x="14" y="42" width="1" height="1" fill="black"/><rect x="15" y="42" width="1" height="1" fill="black"/><rect x="17" y="42" width="1" height="1" fill="black"/><rect x="18" y="42" width="1" height="1" fill="black"/><rect x="19" y="42" width="1" height="1" fill="black"/><rect x="20" y="42" width="1" height="1" fill="black"/><rect x="22" y="42" width="1" height="1" fill="black"/><rect x="32" y="42" width="1" height="1" fill="black"/><rect x="33" y="42" width="1" height="1" fill="black"/><rect x="34" y="42" width="1" height="1" fill="black"/><rect x="35" y="42" width="1" height="1" fill="black"/><rect x="41" y="42" width="1" height="1" fill="black"/><rect x="43" y="42" width="1" height="1" fill="black"/><rect x="44" y="42" width="1" height="1" fill="black"/><rect x="4" y="43" width="1" height="1" fill="black"/><rect x="10" y="43" width="1" height="1" fill="black"/><rect x="12" y="43" width="1" height="1" fill="black"/><rect x="15" y="43" width="1" height="1" fill="black"/><rect x="18" y="43" width="1" height="1" fill="black"/><rect x="20" y="43" width="1" height="1" fill="black"/><rect x="23" y="43" width="1" height="1" fill="black"/><rect x="24" y="43" width="1" height="1" fill="black"/><rect x="25" y="43" width="1" height="1" fill="black"/><rect x="26" y="43" width="1" height="1" fill="black"/><rect x="28" y="43" width="1" height="1" fill="black"/><rect x="30" y="43" width="1" height="1" fill="black"/><rect x="34" y="43" width="1" height="1" fill="black"/><rect x="36" y="43" width="1" height="1" fill="black"/><rect x="37" y="43" width="1" height="1" fill="black"/><rect x="43" y="43" width="1" height="1" fill="black"/><rect x="4" y="44" width="1" height="1" fill="black"/><rect x="5" y="44" width="1" height="1" fill="black"/><rect x="6" y="44" width="1" height="1" fill="black"/><rect x="7" y="44" width="1" height="1" fill="black"/><rect x="8" y="44" width="1" height="1" fill="black"/><rect x="9" y="44" width="1" height="1" fill="black"/><rect x="10" y="44" width="1" height="1" fill="black"/><rect x="12" y="44" width="1" height="1" fill="black"/><rect x="13" y="44" width="1" height="1" fill="black"/><rect x="14" y="44" width="1" height="1" fill="black"/><rect x="16" y="44" width="1" height="1" fill="black"/><rect x="17" y="44" width="1" height="1" fill="black"/><rect x="19" y="44" width="1" height="1" fill="black"/><rect x="22" y="44" width="1" height="1" fill="black"/><rect x="23" y="44" width="1" height="1" fill="black"/><rect x="25" y="44" width="1" height="1" fill="black"/><rect x="26" y="44" width="1" height="1" fill="black"/><rect x="27" y="44" width="1" height="1" fill="black"/><rect x="29" y="44" width="1" height="1" fill="black"/><rect x="33" y="44" width="1" height="1" fill="black"/><rect x="34" y="44" width="1" height="1" fill="black"/><rect x="35" y="44" width="1" height="1" fill="black"/><rect x="36" y="44" width="1" height="1" fill="black"/><rect x="37" y="44" width="1" height="1" fill="black"/><rect x="38" y="44" width="1" height="1" fill="black"/><rect x="39" y="44" width="1" height="1" fill="black"/><rect x="40" y="44" width="1" height="1" fill="black"/><rect x="41" y="44" width="1" height="1" fill="black"/><rect x="43" y="44" width="1" height="1" fill="black"/></g></g></svg>